HIERARCHY
ROOT SpineBase
{
  OFFSET 0.000000 0.000000 0.000000
  CHANNELS 6 Xposition Yposition Zposition Zrotation Xrotation Yrotation
  JOINT SpineMid
  {
    OFFSET -0.000000 28.495269 0.000000
    CHANNELS 3 Zrotation Xrotation Yrotation
    JOINT SpineShoulder
    {
      OFFSET 0.054431 21.259988 -0.639709
      CHANNELS 3 Zrotation Xrotation Yrotation
      JOINT Neck
      {
        OFFSET 0.050315 7.044090 -0.525373
        CHANNELS 3 Zrotation Xrotation Yrotation
        JOINT Head
        {
          OFFSET 1.079604 11.877410 5.257122
          CHANNELS 3 Zrotation Xrotation Yrotation
          End Site
          {
            OFFSET 0 0 0
          }
        }
      }
      JOINT ShoulderLeft
      {
        OFFSET -10.945311 -4.802337 7.729778
        CHANNELS 3 Zrotation Xrotation Yrotation
        JOINT ElbowLeft
        {
          OFFSET -6.714343 -18.239249 5.584306
          CHANNELS 3 Zrotation Xrotation Yrotation
          JOINT WristLeft
          {
            OFFSET 2.382177 -26.638603 3.424237
            CHANNELS 3 Zrotation Xrotation Yrotation
            JOINT HandLeft
            {
              OFFSET 0.085364 -1.250819 2.705427
              CHANNELS 3 Zrotation Xrotation Yrotation
              JOINT HandTipLeft
              {
                OFFSET -0.238076 -0.104153 -0.476847
                CHANNELS 3 Zrotation Xrotation Yrotation
                End Site
                {
                  OFFSET 0 0 0
                }
              }
              JOINT ThumbLeft
              {
                OFFSET -0.107235 0.289577 -1.591902
                CHANNELS 3 Zrotation Xrotation Yrotation
                End Site
                {
                  OFFSET 0 0 0
                }
              }
            }
          }
        }
      }
      JOINT ShoulderRight
      {
        OFFSET 2.194190 -6.137549 -7.655326
        CHANNELS 3 Zrotation Xrotation Yrotation
        JOINT ElbowRight
        {
          OFFSET -5.277151 -24.936510 -3.313502
          CHANNELS 3 Zrotation Xrotation Yrotation
          JOINT WristRight
          {
            OFFSET -8.086035 -18.925019 0.656491
            CHANNELS 3 Zrotation Xrotation Yrotation
            JOINT HandRight
            {
              OFFSET -0.316148 -4.344965 1.045801
              CHANNELS 3 Zrotation Xrotation Yrotation
              JOINT HandTipRight
              {
                OFFSET -3.113711 -5.789455 -0.019918
                CHANNELS 3 Zrotation Xrotation Yrotation
                End Site
                {
                  OFFSET 0 0 0
                }
              }
              JOINT ThumbRight
              {
                OFFSET 3.676514 -1.421988 0.049725
                CHANNELS 3 Zrotation Xrotation Yrotation
                End Site
                {
                  OFFSET 0 0 0
                }
              }
            }
          }
        }
      }
    }
  }
  JOINT HipLeft
  {
    OFFSET -4.112590 0.593015 -1.153980
    CHANNELS 3 Zrotation Xrotation Yrotation
    JOINT KneeLeft
    {
      OFFSET -5.146307 -13.245873 15.056447
      CHANNELS 3 Zrotation Xrotation Yrotation
      JOINT AnkleLeft
      {
        OFFSET 6.574843 -40.144901 -4.366778
        CHANNELS 3 Zrotation Xrotation Yrotation
        JOINT FootLeft
        {
          OFFSET -7.069186 -2.841669 -8.450529
          CHANNELS 3 Zrotation Xrotation Yrotation
          End Site
          {
            OFFSET 0 0 0
          }
        }
      }
    }
  }
  JOINT HipRight
  {
    OFFSET 3.793726 0.626344 -4.786115
    CHANNELS 3 Zrotation Xrotation Yrotation
    JOINT KneeRight
    {
      OFFSET -7.065904 -24.091658 2.791614
      CHANNELS 3 Zrotation Xrotation Yrotation
      JOINT AnkleRight
      {
        OFFSET 5.261116 -29.250325 3.361051
        CHANNELS 3 Zrotation Xrotation Yrotation
        JOINT FootRight
        {
          OFFSET -2.415052 -8.775022 1.849630
          CHANNELS 3 Zrotation Xrotation Yrotation
          End Site
          {
            OFFSET 0 0 0
          }
        }
      }
    }
  }
}
MOTION
Frames: 10
Frame Time: 0.033333
10.273459 68.164835 362.420901 0.000000 0.000000 24.673894 -0.000000 0.000000 -24.673894 -0.000000 0.000000 0.000000 -0.000000 0.000000 0.000000 0.000000 0.000000 0.000000 -0.000000 0.000000 0.000000 -0.000000 0.000000 0.000000 -0.000000 0.000000 0.000000 -0.000000 0.000000 0.000000 0.000000 0.000000 0.000000 0.000000 0.000000 0.000000 -0.000000 0.000000 0.000000 -0.000000 0.000000 0.000000 -0.000000 0.000000 0.000000 -0.000000 0.000000 0.000000 0.000000 0.000000 0.000000 0.000000 0.000000 0.000000 -0.000000 0.000000 -24.673894 -0.000000 0.000000 0.000000 -0.000000 0.000000 0.000000 0.000000 0.000000 0.000000 -0.000000 0.000000 -24.673894 -0.000000 0.000000 0.000000 -0.000000 0.000000 0.000000 0.000000 0.000000 0.000000
10.285114 68.060058 362.366486 -0.008087 -0.045060 28.035939 0.028317 0.035971 -28.035951 -0.000000 0.000000 0.000000 0.277046 0.820891 -0.198640 0.000000 0.000000 0.000000 -0.000000 0.000000 0.000000 -0.000000 0.000000 0.000000 -1.400039 28.028978 -1.582504 5.467333 -34.871005 13.119750 0.000000 0.000000 0.000000 0.000000 0.000000 0.000000 -0.000000 0.000000 0.000000 -0.000000 0.000000 0.000000 -2.549015 -1.750130 -0.522448 -0.445011 1.278753 0.781794 0.000000 0.000000 0.000000 0.000000 0.000000 0.000000 0.028317 0.035971 -28.035951 -0.000000 0.000000 0.000000 -0.000000 0.000000 0.000000 0.000000 0.000000 0.000000 -0.467838 -0.932646 -27.719003 -0.011292 1.088229 -0.320723 -0.000000 0.000000 0.000000 0.000000 0.000000 0.000000
10.294279 67.979180 362.315226 -0.021779 -0.080409 30.375671 0.059450 0.058358 -30.375717 -0.000000 0.000000 0.000000 0.520416 1.464375 -0.368177 0.000000 0.000000 0.000000 -0.000000 0.000000 0.000000 -0.000000 0.000000 0.000000 -2.067991 47.744076 -2.336327 15.343089 -57.897412 28.083178 0.000000 0.000000 0.000000 0.000000 0.000000 0.000000 0.928131 0.307665 -0.191191 -1.570653 0.192009 -0.051908 -3.451431 -3.310110 -0.673945 -1.146513 1.974445 1.334498 0.000000 0.000000 0.000000 0.000000 0.000000 0.000000 0.059450 0.058358 -30.375717 -0.000000 0.000000 0.000000 -0.000000 0.000000 0.000000 0.000000 0.000000 0.000000 -0.878742 -1.637701 -29.815752 -0.029121 1.937974 -0.572404 -0.000000 0.000000 0.000000 0.000000 0.000000 0.000000
10.300956 67.922203 362.267121 -0.041063 -0.106252 31.812265 0.090904 0.068645 -31.812358 -0.000000 0.000000 0.000000 0.730002 1.934923 -0.507830 0.000000 0.000000 0.000000 -0.000000 0.000000 0.000000 -0.000000 0.000000 0.000000 -2.438071 59.917789 -2.574724 32.583213 -70.707685 48.715325 0.000000 0.000000 0.000000 0.000000 0.000000 0.000000 1.311606 0.385075 -0.260704 -2.210713 0.293159 -0.073051 -4.152121 -4.130208 -0.843381 -1.775767 2.381150 1.703819 0.000000 0.000000 0.000000 0.000000 0.000000 0.000000 0.090904 0.068645 -31.812358 -0.000000 0.000000 0.000000 -0.000000 0.000000 0.000000 0.000000 0.000000 0.000000 -1.176437 -2.144267 -31.079111 -0.056522 2.549356 -0.754949 -0.804252 0.381625 -0.271544 0.000000 0.000000 0.000000
10.305143 67.889125 362.222171 -0.065956 -0.122735 32.423169 0.121481 0.068238 -32.423312 -0.000000 0.000000 0.000000 0.905786 2.235976 -0.616974 0.000000 0.000000 0.000000 -0.000000 0.000000 0.000000 -0.000000 0.000000 0.000000 -2.779523 67.754076 -2.432374 58.911822 -76.638441 77.263123 0.000000 0.000000 0.000000 0.000000 0.000000 0.000000 1.625372 0.404341 -0.308074 -2.738281 0.406246 -0.093059 -4.501007 -4.629597 -0.938464 -2.195195 2.640664 1.914363 0.000000 0.000000 0.000000 0.000000 0.000000 0.000000 0.121481 0.068238 -32.423312 -0.000000 0.000000 0.000000 -0.000000 0.000000 0.000000 0.000000 0.000000 0.000000 -1.327662 -2.472653 -31.582734 -0.095643 2.923309 -0.868552 -0.914556 0.538172 -0.336192 0.000000 0.000000 0.000000
10.306841 67.879948 362.180375 -0.096513 -0.129944 32.243353 0.150957 0.058414 -32.243540 -0.000000 0.000000 0.000000 1.047820 2.369853 -0.695113 0.000000 0.000000 0.000000 -0.000000 0.000000 0.000000 -0.000000 0.000000 0.000000 -3.280507 73.230007 -1.891066 87.269939 -78.081775 106.980658 0.000000 0.000000 0.000000 0.000000 0.000000 0.000000 1.859391 0.362113 -0.330597 -3.143474 0.535496 -0.113067 -4.599820 -4.878655 -0.975588 -2.341332 2.825170 1.980515 0.000000 0.000000 0.000000 0.000000 0.000000 0.000000 0.150957 0.058414 -32.243540 -0.000000 0.000000 0.000000 -0.000000 0.000000 0.000000 0.000000 0.000000 0.000000 -1.315510 -2.633018 -31.358866 -0.147745 3.061216 -0.913682 -0.946317 0.709009 -0.388375 0.000000 0.000000 0.000000
10.313299 67.937850 362.147394 -0.124745 -0.140089 30.142444 0.178223 0.058505 -30.142687 -0.000000 0.000000 0.000000 1.127490 2.388483 -0.733577 0.000000 0.000000 0.000000 -0.000000 0.000000 0.000000 -0.000000 0.000000 0.000000 -6.161668 80.400631 1.826761 111.525202 -80.515527 130.731816 0.000000 0.000000 0.000000 0.000000 0.000000 0.000000 1.937729 0.023601 -0.263835 -3.331005 0.866759 -0.160049 -4.336324 -5.557044 -0.913296 -2.262241 4.003427 1.726174 0.000000 0.000000 0.000000 0.000000 0.000000 0.000000 0.178223 0.058505 -30.142687 -0.000000 0.000000 0.000000 -0.000000 0.000000 0.000000 0.000000 0.000000 0.000000 -0.872356 -2.426943 -29.341302 -0.301892 2.681316 -0.816039 -1.124314 1.025124 -0.508659 0.000000 0.000000 0.000000
10.315223 67.962199 362.093105 -0.182981 -0.106076 28.600990 0.211432 0.005538 -28.601169 -0.000000 0.000000 0.000000 1.303538 2.186946 -0.794775 0.000000 0.000000 0.000000 -0.000000 0.000000 0.000000 -0.000000 0.000000 0.000000 -7.771125 81.503210 3.900378 99.654742 -84.744745 122.545964 0.000000 0.000000 0.000000 0.000000 0.000000 0.000000 2.005710 -0.193107 -0.223171 -3.504002 1.101728 -0.197131 -4.185643 -5.186214 -0.899250 0.346116 3.337877 1.686390 0.000000 0.000000 0.000000 0.000000 0.000000 0.000000 -0.705484 -0.639191 -28.777970 0.493380 1.006467 0.167397 -0.000000 0.000000 0.000000 0.000000 0.000000 0.000000 -0.636986 -2.377396 -27.841185 -0.362607 2.503273 -0.769625 -1.026836 1.234511 -0.545046 0.000000 0.000000 0.000000
10.325207 67.872338 362.017895 -0.191046 -0.005794 28.870170 0.170100 -0.087168 -28.870050 -0.000000 0.000000 0.000000 0.932077 1.765629 -0.583868 0.000000 0.000000 0.000000 -0.000000 0.000000 0.000000 -0.000000 0.000000 0.000000 -8.987325 84.004504 4.538136 135.551563 -70.305543 157.501245 0.000000 0.000000 0.000000 0.000000 0.000000 0.000000 1.944886 -0.368825 -0.174846 -3.442053 1.266483 -0.229310 -3.773726 -4.521111 -0.801765 0.496468 2.972742 1.453358 0.000000 0.000000 0.000000 0.000000 0.000000 0.000000 -1.335831 -1.117004 -29.180967 0.813107 1.633130 0.283502 -0.000000 0.000000 0.000000 0.000000 0.000000 0.000000 -0.953004 -2.656902 -28.049746 -0.216881 2.795882 -0.841911 -0.797209 1.436908 -0.553928 0.000000 0.000000 0.000000
10.303435 67.867564 361.973574 -0.272220 0.038618 26.610186 0.226087 -0.156459 -26.609785 -0.000000 0.000000 0.000000 1.118225 1.291138 -0.622365 0.000000 0.000000 0.000000 -0.000000 0.000000 0.000000 -0.000000 0.000000 0.000000 -3.627749 78.426960 -1.946571 125.264586 -68.799197 137.445687 0.000000 0.000000 0.000000 0.000000 0.000000 0.000000 1.816185 -0.412853 -0.148004 -3.341315 1.231865 -0.221745 -3.365209 -3.548173 -0.747189 -0.796196 1.073301 1.912885 0.000000 0.000000 0.000000 0.000000 0.000000 0.000000 -1.507045 -1.605665 -26.849279 0.892551 2.075277 0.196674 -0.000000 0.000000 0.000000 0.000000 0.000000 0.000000 -0.620722 -2.324447 -25.924739 -0.186075 2.319963 -0.699614 2.640416 -2.681608 1.358481 0.000000 0.000000 0.000000
